<?xml version="1.0" standalone="no"?>
<!DOCTYPE svg PUBLIC "-//W3C//DTD SVG 20010904//EN"
 "http://www.w3.org/TR/2001/REC-SVG-20010904/DTD/svg10.dtd">
<svg version="1.0" xmlns="http://www.w3.org/2000/svg"
 width="1024.000000pt" height="1024.000000pt" viewBox="0 0 1024.000000 1024.000000"
 preserveAspectRatio="xMidYMid meet">

<g transform="translate(0.000000,1024.000000) scale(0.100000,-0.100000)"
fill="#000000" stroke="none">
<path d="M1665 9150 c-209 -28 -365 -107 -506 -257 -130 -139 -194 -287 -219
-508 -14 -129 -14 -6421 1 -6553 40 -357 268 -624 618 -721 l96 -26 3455 0
c3295 0 3459 1 3539 18 166 36 304 111 416 225 110 114 177 240 212 402 17 81
18 225 18 3370 0 2647 -3 3298 -13 3353 -65 346 -280 586 -607 679 l-80 23
-3435 1 c-1889 1 -3462 -2 -3495 -6z m4453 -1200 c45 -28 72 -76 72 -130 0
-37 -8 -57 -46 -113 l-45 -69 22 -101 c76 -353 227 -738 393 -1001 211 -333
529 -617 795 -709 152 -53 237 -22 296 107 18 40 45 83 60 95 54 42 146 17
181 -50 49 -95 -74 -307 -220 -379 -97 -48 -178 -58 -283 -37 -236 49 -465
189 -709 432 -328 327 -560 755 -698 1289 -14 55 -27 100 -29 102 -2 2 -26
-27 -54 -64 -28 -37 -148 -195 -268 -352 -120 -157 -285 -374 -367 -482 l-149
-198 -200 0 -199 0 187 248 c103 136 280 366 393 512 216 278 609 791 649 848
13 19 38 43 55 53 42 26 121 25 164 -1z m-1814 -1369 c49 -6 64 -13 88 -40 28
-32 29 -33 26 -139 l-3 -107 -407 3 -408 2 0 -125 0 -125 658 0 c633 -1 731
-5 755 -29 6 -6 13 -51 15 -101 6 -113 -6 -145 -59 -167 -38 -15 -39 -16 -39
-67 0 -45 49 -700 66 -884 l7 -72 -974 0 -974 0 0 502 0 503 -50 3 c-27 1 -60
4 -71 7 -36 8 -54 63 -54 164 0 116 8 126 112 136 40 4 115 5 166 3 50 -1 92
1 92 6 0 4 9 6 20 3 18 -5 19 3 22 234 3 263 3 261 71 286 36 13 839 17 941 4z
m3997 -1390 c25 -31 24 -68 -7 -220 -111 -550 -332 -963 -738 -1379 -178 -183
-346 -320 -566 -465 -355 -232 -795 -436 -1223 -567 -97 -29 -376 -100 -396
-100 -5 0 -39 -20 -74 -45 -289 -202 -568 -191 -862 34 -44 34 -111 86 -150
116 -90 71 -161 99 -236 92 -84 -7 -145 -39 -280 -147 -222 -177 -333 -230
-494 -238 -114 -5 -190 10 -292 58 -73 33 -107 56 -299 197 -78 57 -175 118
-215 137 -85 39 -118 69 -125 118 -12 71 50 148 118 148 71 0 210 -75 430
-233 74 -53 165 -111 203 -129 62 -29 80 -33 155 -33 81 0 89 2 166 44 45 24
121 77 168 117 127 107 174 139 261 181 72 34 87 37 186 41 91 4 118 1 180
-18 121 -36 178 -71 359 -220 41 -34 113 -81 160 -104 77 -37 92 -41 160 -41
61 0 86 5 134 28 56 26 205 126 206 137 0 3 -33 11 -73 17 -102 16 -247 65
-349 117 -47 24 -168 98 -268 164 -245 164 -378 213 -539 199 -155 -13 -259
-72 -516 -291 l-45 -38 -87 27 c-291 90 -523 230 -756 455 -136 131 -234 253
-332 410 -68 111 -164 308 -194 399 -30 93 -61 262 -68 373 -6 93 -5 97 19
121 l24 24 1625 6 c1200 4 1640 8 1684 17 72 14 122 39 195 95 68 52 97 93
150 210 67 150 84 177 121 197 33 17 84 18 1247 16 l1214 -3 19 -24z"/>
<path d="M3946 5591 c-15 -17 -17 -46 -14 -289 3 -254 4 -271 23 -292 l20 -22
330 7 c261 5 335 10 353 21 22 14 22 15 22 282 0 226 -2 271 -16 290 l-15 22
-343 0 c-323 0 -344 -1 -360 -19z"/>
</g>
</svg>
