<?xml version="1.0" encoding="utf-8"?>
<svg xmlns="http://www.w3.org/2000/svg" viewBox="0 0 500 500">
  <defs>
    <linearGradient id="blueGradient" x1="0" y1="0" x2="1" y2="1">
      <stop offset="0" style="stop-color:#0db7ed;stop-opacity:1"/>
      <stop offset="1" style="stop-color:#0066cc;stop-opacity:1"/>
    </linearGradient>
    <linearGradient gradientUnits="userSpaceOnUse" x1="250" y1="42" x2="250" y2="458" id="gradient-1">
      <stop offset="0" style="stop-color: #bada55"/>
      <stop offset="1" style="stop-color: #758d29"/>
    </linearGradient>
  </defs>
  <rect x="42" y="42" width="416" height="416" style="stroke: url(&quot;#gradient-1&quot;); paint-order: fill; fill: rgb(255, 255, 255);">
    <title>BoatColor</title>
  </rect>
  <g transform="matrix(0.05977, 0, 0, -0.061949, -55.563648, 567.214294)" fill="url(#blueGradient)" stroke="none" style="">
    <title>BoatInverted</title>
    <path d="M 4059.33 5536.89 C 4012.27 5528.42 3919.06 5476.1 3995.24 5267.56 C 4058.63 5094.05 4151.59 4988.65 4242.58 4987.58 C 4339.92 4986.44 4504.03 4962.14 4504.03 4962.14 C 4504.03 4962.14 4578.04 4946.86 4625.12 4990.7 C 4695.96 5056.69 4750.81 5414.75 4727.94 5493.63 C 4716.09 5534.53 4648.2 5541.56 4636.35 5542.15 C 4636.35 5542.15 4598.44 5543.55 4337.13 5541.93 C 4337.13 5541.93 4173.14 5542.72 4059.33 5536.89 Z" style="">
      <title>Window</title>
    </path>
    <path d="M 3071.17 9150.21 C 3071.17 9150.21 929.624 9156.149 929.624 7091.45 L 929.624 3151.21 C 911.115 3144.201 929.624 1084.994 3069.357 1083.37 L 7153.482 1084.994 C 7159.711 1071.397 9295.025 1084.994 9295.025 3151.21 L 9295.025 7089.934 C 9295.025 7089.934 9295.025 9156.149 7153.482 9156.149 L 3071.17 9156.15 L 3071.17 9150.21 Z M 6118 7931.26 C 6163 7903.34 6190 7855.46 6190 7801.61 C 6190 7764.71 6182 7744.77 6144 7688.93 L 6099 7620.11 L 6121 7519.39 C 6197 7167.35 6348 6783.4 6514 6521.11 C 6725 6189.03 7043 5905.81 7309 5814.06 C 7461 5761.19 7546 5792.11 7605 5920.77 C 7623 5960.66 7650 6003.54 7665 6015.51 C 7719 6057.39 7811 6032.45 7846 5965.64 C 7895 5870.9 7772 5659.48 7626 5587.67 C 7529 5539.81 7448 5529.83 7343 5550.78 C 7107 5599.64 6878 5739.26 6634 5981.59 C 6306 6307.7 6074 6734.54 5936 7267.08 C 5922 7321.93 5909 7366.8 5907 7368.8 C 5905 7370.79 5881 7341.87 5853 7304.97 C 5825 7268.08 5705 7110.5 5585 6953.94 C 5465 6797.36 5300 6580.95 5218 6473.25 L 5069 6275.8 L 4869 6275.8 L 4670 6275.8 L 4857 6523.11 C 4960 6658.74 5137 6888.11 5250 7033.72 C 5466 7310.95 5859 7822.56 5899 7879.41 C 5912 7898.35 5937 7922.28 5954 7932.26 C 5996 7958.19 6075 7957.19 6118 7931.26 Z M 4304 6565.99 C 4353 6560.02 4368 6553.03 4392 6526.1 C 4420 6494.19 4421 6493.2 4418 6387.48 L 4415 6280.77 L 4008 6283.77 L 3600 6285.76 L 3600 6161.1 L 3600 6036.44 L 4258 6036.44 C 4891 6035.45 4989 6031.45 5013 6007.52 C 5019 6001.54 5026 5956.66 5028 5906.8 C 5034 5794.11 5022 5762.19 4969 5740.26 C 4931 5725.3 4930 5724.3 4930 5673.44 C 4930 5628.56 4979 4975.35 4996 4791.86 L 5003 4720.05 L 4029 4720.05 L 3055 4720.05 L 3055 5220.68 L 3055 5722.3 L 3005 5725.3 C 2978 5726.29 2945 5729.29 2934 5732.27 C 2898 5740.26 2880 5795.11 2880 5895.83 C 2880 6011.51 2888 6021.48 2992 6031.45 C 3032 6035.45 3107.001 6036.459 3158 6034.45 C 3208.795 6032.449 3263.338 6036.358 3270.524 6038.18 C 3288.63 6042.77 3289 6046.41 3292 6276.78 C 3295 6539.07 3295 6537.07 3363 6562.01 C 3399 6574.98 4202 6578.96 4304 6565.99 Z M 8301 5179.79 C 8326 5148.87 8325 5111.98 8294 4960.39 C 8183 4411.9 7962 4000.02 7556 3585.15 C 7378 3402.66 7210 3266.03 6990 3121.43 C 6635 2890.06 6366.617 2783.079 5933.583 2670.24 C 5798.205 2634.964 5558.612 2530.57 5345.628 2412.538 C 5037.493 2241.775 4729 2220.89 4435 2445.27 C 4391 2479.19 4324 2531.04 4285 2560.96 C 4195 2631.76 4124 2659.68 4049 2652.71 C 3965 2645.72 3904 2613.82 3769 2506.11 C 3547 2329.59 3436 2276.74 3275 2268.76 C 3161 2263.78 3085 2278.73 2983 2326.6 C 2910 2359.51 2876 2382.45 2684 2523.06 C 2606 2579.9 2509 2640.74 2469 2659.68 C 2384 2698.59 2351 2728.5 2344 2777.37 C 2332 2848.18 2394 2924.96 2462 2924.96 C 2533 2924.96 2672 2850.16 2892 2692.6 C 2966 2639.74 3057 2581.9 3095 2563.95 C 3157 2535.03 3175 2531.04 3250 2531.04 C 3331 2531.04 3339 2533.04 3416 2574.92 C 3461 2598.86 3537 2651.71 3584 2691.6 C 3711 2798.31 3758 2830.22 3845 2872.11 C 3917 2906.01 3932 2909 4031 2913 C 4122 2916.99 4149 2914 4211 2895.04 C 4332 2859.14 4389 2824.24 4570 2675.64 C 4611 2641.74 4683 2594.86 4730 2571.93 C 4807 2535.03 4822 2531.04 4890 2531.04 C 4951 2531.04 4976 2536.03 5024 2558.97 C 5080 2584.89 5229 2684.62 5230 2695.59 C 5230 2698.59 5197 2706.56 5157 2712.55 C 5055 2728.5 4910 2777.37 4808 2829.22 C 4761 2853.16 4640 2926.96 4540 2992.78 C 4295 3156.33 4162 3205.19 4001 3191.23 C 3846 3178.27 3742 3119.43 3485 2901.03 L 3440 2863.14 L 3353 2890.06 C 3062 2979.81 2830 3119.43 2597 3343.82 C 2461 3474.45 2363 3596.13 2265 3752.7 C 2197 3863.39 2101 4059.85 2071 4150.61 C 2041 4243.35 2010 4411.9 2003 4522.6 C 1997 4615.34 1998 4619.32 2022 4643.26 L 2046 4667.2 L 3671 4673.17 C 4871 4677.17 5311 4681.16 5355 4690.13 C 5427 4704.09 5477 4729.02 5550 4784.87 C 5618 4836.73 5647 4877.61 5700 4994.3 C 5767 5143.89 5784 5170.82 5821 5190.76 C 5854 5207.71 5905 5208.71 7068 5206.71 L 8282 5203.72 L 8301 5179.79 Z" style="transform-origin: 5112.32px 5123.53px;">
      <title>BoatInverted</title>
    </path>
  </g>
</svg>